<?xml version="1.0" standalone="no"?><!DOCTYPE svg PUBLIC "-//W3C//DTD SVG 1.1//EN" "http://www.w3.org/Graphics/SVG/1.1/DTD/svg11.dtd"><svg t="1714465340011" class="icon" viewBox="0 0 1024 1024" version="1.1" xmlns="http://www.w3.org/2000/svg" p-id="33403" xmlns:xlink="http://www.w3.org/1999/xlink" width="200" height="200"><path d="M808.20791 297.654237H447.493785v-176.451977c0-42.811299-30.372881-60.456497-67.977401-36.158192l-348.564972 225.627118c-37.60452 24.298305-37.315254 63.927684 0 88.225989l345.961582 223.60226c37.60452 24.298305 70.580791-0.289266 70.580791-36.447458v-152.442937h258.892656c144.054237 0 142.897175 177.030508 142.897175 177.030508s8.099435 201.039548-142.897175 201.039548H173.848588s-63.059887 6.074576-63.059887 70.870057c0 65.084746 63.349153 67.109605 63.349152 67.109604h634.359322c210.296045 0 212.899435-342.490395 212.899435-342.490395s-2.892655-309.514124-213.1887-309.514125z" p-id="33404" fill="#8992c8"></path></svg>