<?xml version="1.0" standalone="no"?><!DOCTYPE svg PUBLIC "-//W3C//DTD SVG 1.1//EN" "http://www.w3.org/Graphics/SVG/1.1/DTD/svg11.dtd"><svg t="1714444629938" class="icon" viewBox="0 0 1024 1024" version="1.1" xmlns="http://www.w3.org/2000/svg" p-id="17897" xmlns:xlink="http://www.w3.org/1999/xlink" width="200" height="200"><path d="M512 512m-512 0a512 512 0 1 0 1024 0 512 512 0 1 0-1024 0Z" fill="#D0DDFE" p-id="17898"></path><path d="M226.928 215.104m64 0l378.864 0q64 0 64 64l0 459.568q0 64-64 64l-378.864 0q-64 0-64-64l0-459.568q0-64 64-64Z" fill="#FFFFFF" p-id="17899"></path><path d="M226.928 256.736m64 0l339.936 0q64 0 64 64l0 417.936q0 64-64 64l-339.936 0q-64 0-64-64l0-417.936q0-64 64-64Z" fill="#71A1FF" p-id="17900"></path><path d="M324.416 369.696m28.24 0l216.48 0q28.24 0 28.24 28.24l0 0q0 28.24-28.24 28.24l-216.48 0q-28.24 0-28.24-28.24l0 0q0-28.24 28.24-28.24Z" fill="#FFFFFF" p-id="17901"></path><path d="M324.416 501.472m28.24 0l138.496 0q28.24 0 28.24 28.24l0 0q0 28.24-28.24 28.24l-138.496 0q-28.24 0-28.24-28.24l0 0q0-28.24 28.24-28.24Z" fill="#FFFFFF" p-id="17902"></path><path d="M324.416 633.248m28.24 0l6.864 0q28.24 0 28.24 28.24l0 0q0 28.24-28.24 28.24l-6.864 0q-28.24 0-28.24-28.24l0 0q0-28.24 28.24-28.24Z" fill="#FFFFFF" p-id="17903"></path><path d="M878.128 483.28L716.128 856.32 402.448 654.768z" fill="#FFFFFF" p-id="17904"></path><path d="M876.8 483.104l-320 414.672-84.544-217.536z" fill="#FFFFFF" p-id="17905"></path><path d="M835.2 527.872L695.168 800.48 464.96 669.776z" fill="#FFB444" p-id="17906"></path><path d="M825.76 534.96L561.504 815.84l-40.288-126.656z" fill="#216CFF" p-id="17907"></path></svg>