<?xml version="1.0" standalone="no"?><!DOCTYPE svg PUBLIC "-//W3C//DTD SVG 1.1//EN" "http://www.w3.org/Graphics/SVG/1.1/DTD/svg11.dtd"><svg t="1715617739827" class="icon" viewBox="0 0 1024 1024" version="1.1" xmlns="http://www.w3.org/2000/svg" p-id="4450" xmlns:xlink="http://www.w3.org/1999/xlink" width="200" height="200"><path d="M1007.67938 1007.616358a56.313464 56.313464 0 0 1-79.107008 0L646.111189 725.155175l-39.553504-39.553504a55.866531 55.866531 0 0 1 0-79.107009 55.866531 55.866531 0 0 1 79.107009 0l39.553504 39.553505 282.461182 282.461182a56.313464 56.313464 0 0 1 0 79.107009z" fill="#00C569" p-id="4451"></path><path d="M1007.67938 16.320625a56.313464 56.313464 0 0 0-79.107008 0L512.031514 432.861483 95.490656 16.320625a56.089997 56.089997 0 0 0-79.107008 0 56.313464 56.313464 0 0 0 0 79.107008l416.540858 416.540858L16.383648 928.509349a55.866531 55.866531 0 0 0 79.107008 79.107009L1007.67938 95.427633a56.089997 56.089997 0 0 0 0-79.107008z" fill="#111111" p-id="4452"></path></svg>