<svg xmlns="http://www.w3.org/2000/svg" width="16" height="16" fill="none"><path fill="#fff" fill-rule="evenodd" d="m10.967 12.376.064-.321h.74c.583 0 1.034-.15 1.342-.462.307-.31.455-.764.455-1.35V3.017c0-.586-.148-1.04-.455-1.35-.308-.316-.758-.468-1.341-.468H6.709c-.582 0-1.033.152-1.34.467-.307.311-.456.765-.456 1.35v.88h-.74c-.58 0-1.028.15-1.335.46-.311.312-.461.766-.461 1.352v7.274c0 .586.15 1.04.46 1.35.308.315.757.467 1.336.467h5.062c.583 0 1.034-.152 1.341-.467l.024-.122q.367-.437.367-1.229zM6.091 3.08v.815h3.144c.583 0 1.034.15 1.34.461.308.311.456.765.456 1.35v5.17h.65c.25 0 .424-.063.535-.178.113-.116.174-.286.174-.52V3.08c0-.239-.061-.41-.174-.526-.111-.115-.285-.178-.535-.178H6.795c-.246 0-.418.063-.53.178-.113.116-.174.287-.174.526m3.594 2.17c-.112-.114-.286-.177-.535-.177H4.263c-.249 0-.423.063-.535.178s-.173.287-.173.525v7.146c0 .23.06.399.173.515h.001c.112.118.285.183.534.183H9.15c.249 0 .423-.065.534-.182v-.001c.114-.116.175-.284.175-.515V5.777c0-.238-.061-.41-.174-.525" clip-rule="evenodd" opacity=".7"/></svg>