<?xml version="1.0" standalone="no"?><!DOCTYPE svg PUBLIC "-//W3C//DTD SVG 1.1//EN" "http://www.w3.org/Graphics/SVG/1.1/DTD/svg11.dtd"><svg t="1715823134301" class="icon" viewBox="0 0 1080 1024" version="1.1" xmlns="http://www.w3.org/2000/svg" p-id="13691" xmlns:xlink="http://www.w3.org/1999/xlink" width="210.9375" height="200"><path d="M107.52 389.461333c58.652444 0 106.211556 46.193778 106.211556 103.196445s-47.559111 103.196444-106.211556 103.196444C48.867556 595.854222 1.308444 549.660444 1.308444 492.657778S48.867556 389.461333 107.52 389.461333zM893.724444 492.657778c0 49.834667 41.585778 90.282667 92.899556 90.282666 51.370667 0 92.956444-40.391111 92.956444-90.282666 0-49.834667-41.585778-90.282667-92.956444-90.282667-51.313778 0-92.899556 40.391111-92.899556 90.282667z m-280.234666-426.951111c0 35.612444-29.752889 64.512-66.389334 64.512-36.693333 0-66.389333-28.842667-66.389333-64.512C480.711111 30.151111 510.407111 1.251556 547.100444 1.251556c36.636444 0 66.389333 28.842667 66.389334 64.455111zM547.100444 816.412444c-58.709333 0-106.268444 46.193778-106.268444 103.139556 0 57.002667 47.559111 103.196444 106.268444 103.196444 58.652444 0 106.211556-46.193778 106.211556-103.196444 0-56.945778-47.559111-103.139556-106.211556-103.139556z m-385.934222-94.833777a108.487111 108.487111 0 0 1 150.186667 0c41.528889 40.277333 41.528889 105.642667 0 145.92a108.487111 108.487111 0 0 1-150.186667 0 101.091556 101.091556 0 0 1 0-145.92zM801.564444 245.475556a81.351111 81.351111 0 0 0 112.64 0 75.832889 75.832889 0 0 0 0-109.397334 81.351111 81.351111 0 0 0-112.64 0 75.832889 75.832889 0 0 0 0 109.397334zM273.806222 154.282667a50.517333 50.517333 0 0 1 0 72.988444 54.215111 54.215111 0 0 1-75.093333 0 50.517333 50.517333 0 0 1 0-72.988444 54.215111 54.215111 0 0 1 75.093333 0z m508.984889 567.296a101.091556 101.091556 0 0 0 0 145.92c41.528889 40.277333 108.714667 40.277333 150.186667 0 41.528889-40.277333 41.528889-105.642667 0-145.92a108.487111 108.487111 0 0 0-150.186667 0z" fill="#7E9EC9" p-id="13692"></path></svg>